<?xml version="1.0" encoding="UTF-8" ?>
<!DOCTYPE svg PUBLIC "-//W3C//DTD SVG 1.1//EN" "http://www.w3.org/Graphics/SVG/1.1/DTD/svg11.dtd">
<svg width="4320pt" height="4320pt" viewBox="0 0 4320 4320" version="1.1" xmlns="http://www.w3.org/2000/svg">
<g id="#c40000ff">
<path fill="#c40000" opacity="1.00" d=" M 0.00 0.00 L 4320.00 0.00 L 4320.00 4320.00 L 0.00 4320.00 L 0.00 0.00 M 2133.19 676.32 C 2102.09 677.17 2071.01 678.89 2040.02 681.67 C 1860.98 697.48 1684.97 746.94 1523.98 826.88 C 1385.60 895.32 1258.28 985.96 1147.89 1093.85 C 1034.19 1204.90 938.40 1334.29 865.45 1475.50 C 783.90 1632.94 731.00 1805.12 709.78 1981.15 C 691.79 2129.96 695.84 2281.43 722.05 2429.03 C 738.69 2522.65 764.28 2614.69 798.46 2703.42 C 855.64 2852.20 937.00 2991.62 1038.26 3114.69 C 1135.47 3233.00 1251.06 3336.20 1379.74 3419.21 C 1518.02 3508.54 1671.49 3574.35 1831.66 3612.44 C 2028.05 3659.28 2234.13 3664.63 2432.78 3628.68 C 2599.01 3598.60 2759.82 3539.05 2905.69 3453.85 C 3044.84 3372.75 3170.41 3268.52 3276.17 3147.08 C 3381.09 3026.69 3466.49 2889.33 3527.95 2741.93 C 3598.03 2574.23 3636.78 2393.60 3642.29 2211.95 C 3648.42 2021.27 3618.33 1829.35 3552.93 1650.06 C 3497.72 1498.24 3417.54 1355.55 3316.63 1229.40 C 3222.59 1111.70 3110.60 1008.35 2985.59 924.25 C 2845.67 830.05 2689.37 760.16 2525.68 719.35 C 2397.61 687.21 2265.15 673.06 2133.19 676.32 Z" />
<path fill="#c40000" opacity="1.00" d=" M 2298.08 1270.99 C 2384.08 1260.58 2471.54 1261.98 2557.11 1275.56 C 2533.20 1307.07 2515.54 1343.31 2505.60 1381.60 C 2494.58 1423.79 2492.99 1468.37 2500.54 1511.29 C 2507.81 1552.47 2523.87 1592.04 2547.26 1626.70 C 2567.09 1656.17 2592.17 1682.11 2620.96 1702.91 C 2657.55 1729.45 2700.18 1747.60 2744.70 1755.46 C 2789.50 1763.33 2836.09 1761.25 2879.90 1748.92 C 2920.37 1737.59 2958.38 1717.59 2990.72 1690.75 C 3034.04 1654.99 3067.04 1606.88 3084.71 1553.55 C 3138.61 1610.44 3185.39 1674.09 3223.37 1742.65 C 3264.98 1817.61 3296.08 1898.41 3315.40 1981.95 C 3337.82 2078.57 3344.42 2178.78 3335.41 2277.54 C 3326.92 2370.74 3304.18 2462.64 3268.10 2549.01 C 3208.57 2692.06 3112.31 2819.49 2991.38 2916.30 C 2930.11 2965.41 2862.61 3006.77 2790.96 3038.90 C 2709.48 3075.55 2622.61 3100.14 2534.05 3111.83 C 2432.70 3125.16 2329.17 3121.91 2228.91 3101.91 C 2142.14 3084.59 2057.89 3054.70 1979.62 3013.43 C 1843.46 2941.82 1725.66 2835.75 1640.16 2707.87 C 1593.18 2637.91 1555.89 2561.46 1529.61 2481.39 C 1500.16 2391.66 1484.68 2297.38 1483.64 2202.96 C 1482.27 2092.87 1500.54 1982.50 1537.77 1878.86 C 1578.33 1765.54 1641.41 1660.40 1722.03 1571.05 C 1799.67 1484.83 1893.56 1413.28 1997.38 1361.44 C 2091.47 1314.41 2193.65 1283.67 2298.08 1270.99 Z" />
</g>
<g id="#ffffffff">
<path fill="#ffffff" opacity="1.00" d=" M 2133.19 676.32 C 2265.15 673.06 2397.61 687.21 2525.68 719.35 C 2689.37 760.16 2845.67 830.05 2985.59 924.25 C 3110.60 1008.35 3222.59 1111.70 3316.63 1229.40 C 3417.54 1355.55 3497.72 1498.24 3552.93 1650.06 C 3618.33 1829.35 3648.42 2021.27 3642.29 2211.95 C 3636.78 2393.60 3598.03 2574.23 3527.95 2741.93 C 3466.49 2889.33 3381.09 3026.69 3276.17 3147.08 C 3170.41 3268.52 3044.84 3372.75 2905.69 3453.85 C 2759.82 3539.05 2599.01 3598.60 2432.78 3628.68 C 2234.13 3664.63 2028.05 3659.28 1831.66 3612.44 C 1671.49 3574.35 1518.02 3508.54 1379.74 3419.21 C 1251.06 3336.20 1135.47 3233.00 1038.26 3114.69 C 937.00 2991.62 855.64 2852.20 798.46 2703.42 C 764.28 2614.69 738.69 2522.65 722.05 2429.03 C 695.84 2281.43 691.79 2129.96 709.78 1981.15 C 731.00 1805.12 783.90 1632.94 865.45 1475.50 C 938.40 1334.29 1034.19 1204.90 1147.89 1093.85 C 1258.28 985.96 1385.60 895.32 1523.98 826.88 C 1684.97 746.94 1860.98 697.48 2040.02 681.67 C 2071.01 678.89 2102.09 677.17 2133.19 676.32 M 2298.08 1270.99 C 2193.65 1283.67 2091.47 1314.41 1997.38 1361.44 C 1893.56 1413.28 1799.67 1484.83 1722.03 1571.05 C 1641.41 1660.40 1578.33 1765.54 1537.77 1878.86 C 1500.54 1982.50 1482.27 2092.87 1483.64 2202.96 C 1484.68 2297.38 1500.16 2391.66 1529.61 2481.39 C 1555.89 2561.46 1593.18 2637.91 1640.16 2707.87 C 1725.66 2835.75 1843.46 2941.82 1979.62 3013.43 C 2057.89 3054.70 2142.14 3084.59 2228.91 3101.91 C 2329.17 3121.91 2432.70 3125.16 2534.05 3111.83 C 2622.61 3100.14 2709.48 3075.55 2790.96 3038.90 C 2862.61 3006.77 2930.11 2965.41 2991.38 2916.30 C 3112.31 2819.49 3208.57 2692.06 3268.10 2549.01 C 3304.18 2462.64 3326.92 2370.74 3335.41 2277.54 C 3344.42 2178.78 3337.82 2078.57 3315.40 1981.95 C 3296.08 1898.41 3264.98 1817.61 3223.37 1742.65 C 3185.39 1674.09 3138.61 1610.44 3084.71 1553.55 C 3067.04 1606.88 3034.04 1654.99 2990.72 1690.75 C 2958.38 1717.59 2920.37 1737.59 2879.90 1748.92 C 2836.09 1761.25 2789.50 1763.33 2744.70 1755.46 C 2700.18 1747.60 2657.55 1729.45 2620.96 1702.91 C 2592.17 1682.11 2567.09 1656.17 2547.26 1626.70 C 2523.87 1592.04 2507.81 1552.47 2500.54 1511.29 C 2492.99 1468.37 2494.58 1423.79 2505.60 1381.60 C 2515.54 1343.31 2533.20 1307.07 2557.11 1275.56 C 2471.54 1261.98 2384.08 1260.58 2298.08 1270.99 Z" />
</g>
</svg>
