<?xml version="1.0" encoding="UTF-8" ?>
<!DOCTYPE svg PUBLIC "-//W3C//DTD SVG 1.1//EN" "http://www.w3.org/Graphics/SVG/1.1/DTD/svg11.dtd">
<svg width="1700pt" height="718pt" viewBox="0 0 1700 718" version="1.1" xmlns="http://www.w3.org/2000/svg">
<g id="#010106ff">
<path fill="#000000" opacity="1.00" d=" M 86.12 0.00 L 86.30 0.00 C 91.71 3.85 97.26 7.50 102.72 11.27 C 122.91 25.12 145.01 36.35 168.45 43.53 C 200.59 53.53 234.79 55.08 268.14 52.11 C 299.98 49.19 331.46 42.52 361.89 32.71 C 370.38 29.89 378.60 26.35 387.06 23.45 C 437.17 6.01 491.97 2.57 543.96 12.96 C 583.86 20.96 622.08 37.27 655.36 60.69 C 657.58 62.26 660.04 63.44 662.57 64.46 C 728.63 91.96 786.77 139.41 824.46 200.49 C 834.07 215.99 842.42 232.28 849.33 249.17 C 873.86 186.07 919.66 131.94 976.70 95.73 C 992.92 85.35 1009.97 76.25 1027.71 68.73 C 1032.65 66.68 1036.51 62.84 1040.93 59.92 C 1084.25 29.00 1136.10 10.23 1189.16 6.14 C 1234.76 2.51 1281.22 9.26 1323.72 26.28 C 1331.83 29.39 1339.53 33.58 1347.97 35.81 C 1388.78 47.73 1431.38 54.86 1473.99 53.13 C 1492.91 52.26 1511.80 49.46 1529.94 43.92 C 1552.77 37.09 1574.37 26.43 1594.15 13.19 C 1600.59 8.79 1607.09 4.47 1613.49 0.00 L 1613.68 0.00 C 1624.48 17.83 1635.56 35.54 1644.77 54.27 C 1684.43 132.20 1703.91 220.54 1699.07 307.94 C 1694.92 386.71 1670.59 464.82 1626.47 530.44 C 1604.97 562.53 1578.79 591.46 1548.96 615.99 C 1491.94 663.02 1423.04 695.47 1350.53 709.76 C 1303.70 718.91 1255.22 720.30 1208.08 712.56 C 1164.98 705.47 1123.12 690.62 1085.38 668.58 C 1032.17 637.77 987.60 593.11 954.35 541.57 C 945.43 589.97 923.01 636.16 888.75 671.70 C 876.78 684.52 862.88 695.29 848.94 705.84 C 838.48 697.81 827.86 689.87 818.57 680.46 C 780.85 643.92 753.28 596.20 743.56 544.37 C 704.30 604.73 648.74 655.06 582.94 684.90 C 542.46 703.38 498.52 714.06 454.13 716.87 C 374.04 721.88 293.16 702.28 222.70 664.31 C 190.45 646.92 160.26 625.63 133.35 600.74 C 105.58 575.10 81.63 545.36 62.19 512.96 C 30.57 460.33 10.96 400.78 3.53 339.91 C 1.52 324.16 0.63 308.29 0.00 292.44 L 0.00 271.44 C 0.50 260.31 0.89 249.17 1.96 238.08 C 8.37 165.99 30.90 95.53 66.60 32.62 C 72.79 21.56 79.67 10.91 86.12 0.00 M 1204.22 45.34 C 1161.12 46.80 1118.37 59.15 1081.38 81.38 C 1075.59 85.08 1070.44 89.67 1065.02 93.88 C 1054.41 102.25 1044.15 111.07 1034.79 120.83 C 988.23 168.10 959.02 233.30 958.96 300.01 C 959.72 360.03 983.95 419.30 1025.11 462.95 C 1052.74 492.19 1086.81 515.66 1124.75 529.33 C 1169.83 545.82 1219.54 549.21 1266.50 539.36 C 1305.05 531.31 1341.67 514.18 1372.55 489.72 C 1404.15 464.71 1429.80 432.12 1446.21 395.29 C 1464.59 354.38 1471.28 308.37 1465.58 263.90 C 1460.48 223.12 1444.80 183.74 1420.60 150.52 C 1397.07 117.95 1365.40 91.32 1329.31 73.66 C 1322.45 70.18 1315.08 67.75 1308.66 63.47 C 1275.63 50.17 1239.78 44.15 1204.22 45.34 M 465.59 47.82 C 399.70 52.39 336.15 83.88 292.61 133.54 C 257.73 172.87 235.77 223.57 231.43 275.99 C 229.95 294.66 230.33 313.53 233.03 332.08 C 239.24 375.92 257.78 417.87 285.72 452.20 C 312.02 484.80 346.61 510.61 385.26 526.74 C 446.99 552.84 518.88 553.11 580.99 528.08 C 599.26 520.80 616.40 510.89 632.44 499.55 C 648.51 488.23 663.46 475.28 676.69 460.74 C 699.70 434.99 717.13 404.32 727.61 371.43 C 742.14 325.70 742.97 275.66 729.67 229.54 C 719.41 194.55 701.09 162.10 677.40 134.45 C 653.56 106.48 623.21 84.26 589.66 69.34 C 550.94 52.00 507.87 44.72 465.59 47.82 M 820.26 375.34 C 795.77 409.29 781.94 450.51 779.40 492.19 C 802.78 501.90 826.39 511.09 849.90 520.52 C 872.77 511.07 895.75 501.89 918.55 492.27 C 917.94 469.89 913.36 447.63 905.31 426.75 C 893.25 395.16 873.29 366.94 848.97 343.58 C 838.11 352.89 828.68 363.80 820.26 375.34 M 782.87 536.86 C 791.35 581.82 815.96 622.87 849.00 654.13 C 862.79 642.42 874.31 628.13 884.16 612.99 C 898.96 590.00 908.91 564.07 914.48 537.34 C 893.01 546.21 871.51 554.98 850.02 563.78 C 827.65 554.77 805.22 545.91 782.87 536.86 Z" />
<path fill="#000000" opacity="1.00" d=" M 1174.67 103.82 C 1215.22 100.22 1257.16 109.52 1291.56 131.56 C 1324.78 152.89 1351.34 184.73 1365.49 221.65 C 1372.37 239.33 1376.04 258.16 1377.18 277.07 C 1379.82 318.71 1369.01 361.50 1344.76 395.68 C 1322.96 427.02 1291.51 451.76 1255.50 464.63 C 1212.99 479.42 1165.17 478.91 1123.10 462.84 C 1083.82 447.50 1049.99 418.47 1029.31 381.68 C 1014.96 356.83 1007.37 328.49 1005.60 299.95 C 1003.49 267.08 1010.22 233.60 1025.34 204.30 C 1047.13 160.45 1087.44 126.48 1134.08 111.80 C 1147.24 107.58 1160.91 105.05 1174.67 103.82 M 1189.20 200.75 C 1200.62 219.38 1229.88 222.67 1245.53 207.69 C 1256.93 197.13 1258.81 179.06 1252.53 165.31 C 1249.01 162.98 1244.80 161.82 1240.95 160.14 C 1228.13 155.27 1214.65 151.95 1200.94 151.16 C 1184.69 161.14 1179.43 184.54 1189.20 200.75 M 1080.46 206.49 C 1064.14 228.23 1055.07 254.95 1053.09 281.95 C 1051.40 319.70 1065.53 358.02 1091.65 385.37 C 1121.13 415.78 1164.96 431.86 1207.10 426.77 C 1245.53 422.15 1282.10 401.24 1304.42 369.45 C 1314.34 355.10 1321.86 339.02 1326.06 322.06 C 1331.24 301.46 1331.24 279.58 1325.95 259.01 C 1321.18 240.10 1312.01 222.46 1300.04 207.13 C 1296.24 218.34 1290.39 228.83 1282.98 238.05 C 1292.48 263.83 1292.76 293.39 1281.57 318.70 C 1272.79 338.38 1257.69 355.16 1239.02 365.91 C 1221.60 376.10 1201.06 380.57 1180.96 379.03 C 1137.86 377.12 1098.67 343.91 1088.87 302.03 C 1084.79 286.72 1084.27 270.45 1087.84 254.99 C 1093.94 227.13 1112.03 202.08 1136.82 187.90 C 1136.54 179.04 1136.94 170.10 1138.73 161.39 C 1115.80 170.92 1094.93 186.16 1080.46 206.49 Z" />
<path fill="#000000" opacity="1.00" d=" M 493.51 108.81 C 535.03 105.14 578.05 114.99 612.86 138.22 C 626.50 147.60 639.33 158.32 650.39 170.67 C 701.60 228.00 711.32 318.31 673.18 385.10 C 645.55 435.98 592.51 472.07 535.00 478.91 C 518.39 480.73 501.55 480.83 484.95 478.88 C 447.08 474.10 411.01 456.86 383.00 431.01 C 346.42 397.09 324.61 347.89 323.99 298.01 C 323.92 284.43 324.66 270.79 327.24 257.44 C 339.26 194.68 386.29 140.02 446.49 118.65 C 461.61 113.21 477.54 110.31 493.51 108.81 M 519.37 156.51 C 503.37 166.20 498.56 189.35 507.71 205.29 C 512.03 213.77 520.88 219.10 529.98 221.02 C 538.30 222.99 547.08 221.95 555.06 219.11 C 564.29 215.31 570.50 206.43 573.30 197.12 C 575.97 188.35 575.69 178.18 570.61 170.32 C 566.55 167.34 561.66 165.78 556.98 164.05 C 546.22 160.60 535.21 157.90 524.03 156.19 C 522.49 156.09 520.74 155.56 519.37 156.51 M 406.47 204.39 C 389.48 222.05 377.96 244.90 373.82 269.06 C 369.38 294.59 372.58 321.16 381.51 345.40 C 396.45 384.61 431.05 415.03 471.01 427.02 C 487.46 432.09 504.88 433.48 522.00 432.20 C 561.94 428.66 600.30 407.21 623.24 374.17 C 645.60 343.08 653.51 302.36 645.47 265.02 C 641.65 246.44 633.23 229.07 622.63 213.44 C 621.75 212.17 621.00 210.73 619.64 209.91 C 616.45 222.43 609.89 233.84 601.66 243.70 C 607.44 258.36 610.05 274.25 608.75 289.98 C 606.34 329.08 578.66 364.72 542.17 378.29 C 524.96 384.84 506.01 385.56 487.95 382.88 C 448.93 376.20 416.45 344.17 407.00 306.05 C 402.53 288.02 403.10 268.77 408.81 251.09 C 416.32 227.37 432.70 206.62 453.98 193.74 C 453.87 186.58 454.01 179.37 455.66 172.36 C 437.24 179.36 420.10 190.08 406.47 204.39 Z" />
</g>
</svg>
